HIERARCHY
ROOT hip
{
  OFFSET 0 0 0
  CHANNELS 6 Xposition Yposition Zposition Zrotation Yrotation Xrotation
  JOINT abdomen
  {
    OFFSET 0 20.6881 -0.73152
    CHANNELS 3 Zrotation Xrotation Yrotation
    JOINT chest
    {
      OFFSET 0 11.7043 -0.48768
      CHANNELS 3 Zrotation Xrotation Yrotation
      JOINT neck
      {
        OFFSET 0 22.1894 -2.19456
        CHANNELS 3 Zrotation Xrotation Yrotation
        JOINT head
        {
          OFFSET -0.24384 7.07133 1.2192
          CHANNELS 3 Zrotation Xrotation Yrotation
          JOINT leftEye
          {
            OFFSET 4.14528 8.04674 8.04672
            CHANNELS 3 Zrotation Xrotation Yrotation
            End Site
            {
              OFFSET 1 0 0
            }
          }
          JOINT rightEye
          {
            OFFSET -3.6576 8.04674 8.04672
            CHANNELS 3 Zrotation Xrotation Yrotation
            End Site
            {
              OFFSET 1 0 0
            }
          }
        }
      }
      JOINT rCollar
      {
        OFFSET -2.68224 19.2634 -4.8768
        CHANNELS 3 Zrotation Xrotation Yrotation
        JOINT rShldr
        {
          OFFSET -8.77824 -1.95073 1.46304
          CHANNELS 3 Zrotation Xrotation Yrotation
          JOINT rForeArm
          {
            OFFSET -28.1742 -1.7115 0.48768
            CHANNELS 3 Zrotation Xrotation Yrotation
            JOINT rHand
            {
              OFFSET -22.5879 0.773209 7.07136
              CHANNELS 3 Zrotation Xrotation Yrotation
              JOINT rThumb1
              {
                OFFSET -1.2192 -0.487915 3.41376
                CHANNELS 3 Zrotation Xrotation Yrotation
                JOINT rThumb2
                {
                  OFFSET -3.37035 -0.52449 3.41376
                  CHANNELS 3 Zrotation Xrotation Yrotation
                  End Site
                  {
                    OFFSET -1.78271 -1.18214 1.43049
                  }
                }
              }
              JOINT rIndex1
              {
                OFFSET -7.75947 0.938293 5.60832
                CHANNELS 3 Zrotation Xrotation Yrotation
                JOINT rIndex2
                {
                  OFFSET -2.54057 -0.884171 1.56538
                  CHANNELS 3 Zrotation Xrotation Yrotation
                  End Site
                  {
                    OFFSET -1.62519 -0.234802 1.16502
                  }
                }
              }
              JOINT rMid1
              {
                OFFSET -8.24714 1.18213 3.41376
                CHANNELS 3 Zrotation Xrotation Yrotation
                JOINT rMid2
                {
                  OFFSET -3.10165 -0.590103 1.0647
                  CHANNELS 3 Zrotation Xrotation Yrotation
                  End Site
                  {
                    OFFSET -2.48547 -0.328903 0.83742
                  }
                }
              }
              JOINT rRing1
              {
                OFFSET -8.82822 0.546677 1.51678
                CHANNELS 3 Zrotation Xrotation Yrotation
                JOINT rRing2
                {
                  OFFSET -2.60934 -0.819778 -0.0198488
                  CHANNELS 3 Zrotation Xrotation Yrotation
                  End Site
                  {
                    OFFSET -2.33842 -0.294052 0.168128
                  }
                }
              }
              JOINT rPinky1
              {
                OFFSET -8.27202 -0.0477905 -0.4584
                CHANNELS 3 Zrotation Xrotation Yrotation
                JOINT rPinky2
                {
                  OFFSET -1.82734 -0.647385 -0.700984
                  CHANNELS 3 Zrotation Xrotation Yrotation
                  End Site
                  {
                    OFFSET -1.69225 -0.51767 -0.607171
                  }
                }
              }
            }
          }
        }
      }
      JOINT lCollar
      {
        OFFSET 2.68224 19.2634 -4.8768
        CHANNELS 3 Zrotation Xrotation Yrotation
        JOINT lShldr
        {
          OFFSET 8.77824 -1.95073 1.46304
          CHANNELS 3 Zrotation Xrotation Yrotation
          JOINT lForeArm
          {
            OFFSET 28.1742 -1.7115 0.48768
            CHANNELS 3 Zrotation Xrotation Yrotation
            JOINT lHand
            {
              OFFSET 22.5879 0.773209 7.07136
              CHANNELS 3 Zrotation Xrotation Yrotation
              JOINT lThumb1
              {
                OFFSET 1.2192 -0.487915 3.41376
                CHANNELS 3 Zrotation Xrotation Yrotation
                JOINT lThumb2
                {
                  OFFSET 3.37035 -0.52449 3.41376
                  CHANNELS 3 Zrotation Xrotation Yrotation
                  End Site
                  {
                    OFFSET 1.78271 -1.18214 1.43049
                  }
                }
              }
              JOINT lIndex1
              {
                OFFSET 7.75947 0.938293 5.60832
                CHANNELS 3 Zrotation Xrotation Yrotation
                JOINT lIndex2
                {
                  OFFSET 2.54057 -0.884171 1.56538
                  CHANNELS 3 Zrotation Xrotation Yrotation
                  End Site
                  {
                    OFFSET 1.62519 -0.234802 1.16502
                  }
                }
              }
              JOINT lMid1
              {
                OFFSET 8.24714 1.18213 3.41376
                CHANNELS 3 Zrotation Xrotation Yrotation
                JOINT lMid2
                {
                  OFFSET 3.10165 -0.590103 1.0647
                  CHANNELS 3 Zrotation Xrotation Yrotation
                  End Site
                  {
                    OFFSET 2.48547 -0.328903 0.83742
                  }
                }
              }
              JOINT lRing1
              {
                OFFSET 8.82822 0.546677 1.51678
                CHANNELS 3 Zrotation Xrotation Yrotation
                JOINT lRing2
                {
                  OFFSET 2.60934 -0.819778 -0.0198488
                  CHANNELS 3 Zrotation Xrotation Yrotation
                  End Site
                  {
                    OFFSET 2.33842 -0.294052 0.168128
                  }
                }
              }
              JOINT lPinky1
              {
                OFFSET 8.27202 -0.0477905 -0.4584
                CHANNELS 3 Zrotation Xrotation Yrotation
                JOINT lPinky2
                {
                  OFFSET 1.82734 -0.647385 -0.700984
                  CHANNELS 3 Zrotation Xrotation Yrotation
                  End Site
                  {
                    OFFSET 1.69225 -0.51767 -0.607171
                  }
                }
              }
            }
          }
        }
      }
    }
  }
  JOINT rButtock
  {
    OFFSET -8.77824 4.35084 1.2192
    CHANNELS 3 Zrotation Xrotation Yrotation
    JOINT rThigh
    {
      OFFSET 0 -1.70687 -2.19456
      CHANNELS 3 Zrotation Xrotation Yrotation
      JOINT rShin
      {
        OFFSET 0 -36.8199 0.73152
        CHANNELS 3 Zrotation Xrotation Yrotation
        JOINT rFoot
        {
          OFFSET 0.73152 -45.1104 -5.12064
          CHANNELS 3 Zrotation Xrotation Yrotation
          End Site
          {
            OFFSET -1.1221 -3.69964 12.103
          }
        }
      }
    }
  }
  JOINT lButtock
  {
    OFFSET 8.77824 4.35084 1.2192
    CHANNELS 3 Zrotation Xrotation Yrotation
    JOINT lThigh
    {
      OFFSET 0 -1.70687 -2.19456
      CHANNELS 3 Zrotation Xrotation Yrotation
      JOINT lShin
      {
        OFFSET 0 -36.8199 0.73152
        CHANNELS 3 Zrotation Xrotation Yrotation
        JOINT lFoot
        {
          OFFSET -0.73152 -45.1104 -5.12064
          CHANNELS 3 Zrotation Xrotation Yrotation
          End Site
          {
            OFFSET 1.1221 -3.69964 12.103
          }
        }
      }
    }
  }
}
MOTION
Frames:	4
Frame Time:	0.03333
2.4028877106846074 56.78759294826587 111.41917030411621 -12.298620223999023 -18.932947158813477 11.249274253845215 4.478049278259277 4.257203578948975 13.957932472229004 -1.1707432270050049 -6.656732082366943 3.2243106365203857 -3.9154212474823 13.275465965270996 -3.2718536853790283 7.258073329925537 -25.990924835205078 -4.7683916091918945 0.26297566294670105 0.013719015754759312 0.21806032955646515 -0.012446275912225246 0.24945443868637085 -0.12769953906536102 -0.5127554535865784 0.12254879623651505 -0.007268405053764582 42.289093017578125 36.755157470703125 15.220823287963867 -26.767555236816406 -37.32904052734375 81.92839813232422 0.38711458444595337 16.228416442871094 2.2039742469787598 0.10420047491788864 0.13387475907802582 0.5410467386245728 0.30053552985191345 -0.11138911545276642 0.16133905947208405 -0.06254955381155014 0.31198352575302124 0.3581640422344208 7.612914085388184 5.298358917236328 0.3096151053905487 -0.19599922001361847 -0.16201798617839813 -0.02587653137743473 3.2740378379821777 0.38520270586013794 0.7137070894241333 -0.16671662032604218 -0.4331520199775696 0.12445693463087082 9.998822212219238 0.7962645888328552 0.2676630914211273 0.22102031111717224 0.2725757658481598 -0.16052186489105225 2.343160629272461 -0.38435328006744385 -0.6950474381446838 -0.127510204911232 0.06947644054889679 0.3053196966648102 -63.66837692260742 25.109853744506836 1.1334123611450195 28.41395378112793 -44.55269241333008 -89.86261749267578 0.23863624036312103 -28.072616577148438 4.126730918884277 -0.15861383080482483 -0.5000622868537903 0.3591904044151306 0.4092547297477722 -0.09577986598014832 0.15317657589912415 -0.16779868304729462 -0.07756944000720978 -0.15432700514793396 -8.070384979248047 5.10857629776001 -0.741163432598114 0.26477470993995667 0.3451961278915405 -0.027222484350204468 -2.859466791152954 1.108642578125 0.19438093900680542 -0.009070603176951408 0.45774275064468384 0.28671130537986755 -10.280793190002441 0.7973856329917908 0.2366248071193695 -0.47901299595832825 -0.3734731674194336 -0.22015461325645447 -1.9434850215911865 -1.0399850606918335 0.10456647723913193 0.053055811673402786 -0.17771212756633759 -0.04928034543991089 -5.0099711418151855 -2.1863443851470947 -5.873580455780029 -0.008089619688689709 54.22315216064453 1.7153183221817017 -8.4210205078125 -15.660937309265137 -22.568323135375977 -0.16190356016159058 -0.021653195843100548 0.17747114598751068 56.601043701171875 -65.04876708984375 57.09103012084961 5.617040634155273 76.12848663330078 -5.841699123382568 4.8144307136535645 -6.974287033081055 15.830059051513672
2.4842082631078966 57.35604227212934 112.65144859489928 -11.820907592773438 -17.565998077392578 10.675649642944336 3.0075531005859375 4.475698471069336 14.442721366882324 -1.0678917169570923 -6.779500961303711 3.375277519226074 -4.065701961517334 13.418363571166992 -3.8089985847473145 7.787628650665283 -26.072509765625 -5.7484517097473145 0.33044981956481934 0.0014812086010351777 0.204079270362854 0.02680276520550251 0.2596222460269928 -0.13896571099758148 -0.5613544583320618 0.053046245127916336 -0.04751431569457054 41.33663558959961 35.70355224609375 15.887385368347168 -26.787429809570312 -38.12474822998047 82.87500762939453 0.4068042039871216 16.402944564819336 2.1255979537963867 0.04228965938091278 0.08022645115852356 0.5812358260154724 0.3462771475315094 -0.0297838281840086 0.17541109025478363 -0.11011315882205963 0.27097925543785095 0.44399845600128174 7.569911003112793 5.301795959472656 0.25179463624954224 -0.21153375506401062 -0.08982598781585693 -0.06417091935873032 3.3607349395751953 0.3909112513065338 0.7620300650596619 -0.11072676628828049 -0.40456005930900574 0.10659652203321457 10.030467987060547 0.7977139949798584 0.3003994822502136 0.2281513810157776 0.2733975648880005 -0.22403930127620697 2.356074094772339 -0.4055095613002777 -0.6791629791259766 -0.10522489249706268 0.09695875644683838 0.2677006721496582 -63.47373580932617 24.444015502929688 2.945955276489258 28.2578125 -44.45652770996094 -89.82978057861328 0.20531798899173737 -27.755205154418945 3.995983839035034 -0.19480103254318237 -0.4787166714668274 0.41579633951187134 0.39868730306625366 -0.07450129091739655 0.11499407887458801 -0.10499008744955063 -0.0435074120759964 -0.12243319302797318 -8.085763931274414 5.132215976715088 -0.6767815947532654 0.2407042682170868 0.30846303701400757 0.008034215308725834 -2.834770441055298 1.0771987438201904 0.1835574060678482 0.03970874845981598 0.44544151425361633 0.3200218677520752 -10.263847351074219 0.7683429718017578 0.2390047311782837 -0.5198217630386353 -0.3825840950012207 -0.25033706426620483 -2.0021350383758545 -1.1010432243347168 0.06796643882989883 0.011055344715714455 -0.16232988238334656 -0.06523923575878143 -6.140483379364014 -4.595755100250244 -5.8877177238464355 -0.25435468554496765 57.714900970458984 1.7451032400131226 -7.214049339294434 -14.856395721435547 -20.08100700378418 -0.09659477323293686 0.06549051403999329 0.21485799551010132 50.942203521728516 -65.08134460449219 51.65460205078125 5.432224273681641 75.25502014160156 -5.526577949523926 5.1009016036987305 -7.299810409545898 16.768064498901367
2.5234248080837296 57.9625357496698 113.94391141771905 -11.305438995361328 -15.708061218261719 10.006570816040039 1.4011716842651367 4.7680816650390625 14.793353080749512 -0.872489333152771 -6.943653106689453 3.5439791679382324 -4.201845645904541 13.595232009887695 -4.337224960327148 8.392566680908203 -26.079174041748047 -6.8074564933776855 0.40163931250572205 -0.029993873089551926 0.18460753560066223 0.08160242438316345 0.24484971165657043 -0.12147761136293411 -0.6034347414970398 -0.04191645234823227 -0.1132287085056305 40.8546028137207 34.65363693237305 15.859269142150879 -26.823095321655273 -38.8880615234375 83.71476745605469 0.44645485281944275 16.366111755371094 2.023513078689575 -0.05354764685034752 0.005404698196798563 0.602185845375061 0.37216871976852417 0.06683169305324554 0.15941323339939117 -0.14453959465026855 0.2309817522764206 0.5422253012657166 7.525783538818359 5.310573101043701 0.20125895738601685 -0.20900222659111023 0.009867946617305279 -0.11738776415586472 3.447282075881958 0.42633703351020813 0.7983601689338684 -0.050332847982645035 -0.3600043058395386 0.08583340793848038 10.07396125793457 0.7928176522254944 0.3429175615310669 0.24407845735549927 0.2653926908969879 -0.3113928437232971 2.3703744411468506 -0.4458799362182617 -0.6240949630737305 -0.07070287317037582 0.13231636583805084 0.20235201716423035 -63.125038146972656 23.751264572143555 4.358789920806885 28.067777633666992 -44.13395309448242 -89.56507110595703 0.20578140020370483 -27.220319747924805 3.8509373664855957 -0.2432168573141098 -0.45337992906570435 0.4581027626991272 0.3518942892551422 -0.023849504068493843 0.07379143685102463 -0.04006126523017883 -0.004210443235933781 -0.0768091008067131 -8.113832473754883 5.18531608581543 -0.5789623856544495 0.20676285028457642 0.23676614463329315 0.04306819289922714 -2.7982940673828125 1.052065372467041 0.13852298259735107 0.09788518399000168 0.41128453612327576 0.35620495676994324 -10.256999969482422 0.7409947514533997 0.23902009427547455 -0.5452784299850464 -0.3716273307800293 -0.2711072564125061 -2.071653127670288 -1.1344867944717407 0.05407904461026192 -0.04724742844700813 -0.13335293531417847 -0.05614699795842171 -7.542635917663574 -7.713943958282471 -6.119548320770264 -0.6622838377952576 62.33972930908203 1.930507779121399 -5.928155899047852 -14.137408256530762 -17.415645599365234 -0.03165445849299431 0.16944104433059692 0.25120845437049866 44.404483795166016 -64.60714721679688 45.235633850097656 5.241118907928467 74.1912841796875 -5.150770664215088 5.287659645080566 -7.598108768463135 17.480449676513672
2.5073940339365923 58.60259960698086 115.2915861814163 -10.8517427444458 -13.403242111206055 9.189264297485352 -0.19851887226104736 5.156999111175537 15.00045394897461 -0.5619415640830994 -7.136206150054932 3.7289562225341797 -4.328083038330078 13.805153846740723 -4.851952075958252 9.084935188293457 -26.032100677490234 -7.9045586585998535 0.4625674784183502 -0.07168568670749664 0.15944607555866241 0.14540977776050568 0.21394291520118713 -0.07130671292543411 -0.6373385190963745 -0.1451907753944397 -0.1888091266155243 40.88627243041992 33.67024612426758 15.032523155212402 -26.895980834960938 -39.54618835449219 84.35208892822266 0.4874318838119507 16.129636764526367 1.926427960395813 -0.16779695451259613 -0.08503019064664841 0.5998585820198059 0.3658558130264282 0.18401984870433807 0.1118369922041893 -0.177181214094162 0.2041929066181183 0.6412786841392517 7.4878997802734375 5.32772970199585 0.16670799255371094 -0.18295571208000183 0.1262734830379486 -0.18153497576713562 3.519291400909424 0.4885849356651306 0.8257811665534973 0.01052886713296175 -0.30574873089790344 0.08731136471033096 10.1200532913208 0.7833176255226135 0.38944655656814575 0.270039439201355 0.2571725845336914 -0.40925660729408264 2.389099359512329 -0.4876210689544678 -0.5374840497970581 -0.0302773155272007 0.16466040909290314 0.10551051050424576 -62.62776565551758 23.131114959716797 5.291412830352783 27.884981155395508 -43.60425567626953 -89.06926727294922 0.25276678800582886 -26.479232788085938 3.710829257965088 -0.3013390004634857 -0.42520958185195923 0.4836817681789398 0.26985517144203186 0.054400380700826645 0.04325424134731293 0.015162945725023746 0.03345603123307228 -0.03441281244158745 -8.143648147583008 5.244049549102783 -0.45742127299308777 0.1557466983795166 0.15182366967201233 0.07117796689271927 -2.753877639770508 1.042121410369873 0.0658985823392868 0.16207188367843628 0.34673985838890076 0.40883421897888184 -10.247278213500977 0.7129677534103394 0.23537053167819977 -0.5501791834831238 -0.34097638726234436 -0.2777355909347534 -2.137957811355591 -1.1403350830078125 0.05362829193472862 -0.09604514390230179 -0.09474486112594604 -0.026531044393777847 -9.198434829711914 -11.417511940002441 -6.662533760070801 -1.3477656841278076 67.91320037841797 2.4172770977020264 -4.701587200164795 -13.617728233337402 -14.805455207824707 0.034076280891895294 0.2925761044025421 0.2801877558231354 37.70088195800781 -63.556583404541016 38.485992431640625 5.000143051147461 72.94977569580078 -4.700406074523926 5.337103366851807 -7.877023220062256 17.7977352142334
